<svg width="142" height="142" viewBox="0 0 142 142" fill="none" xmlns="http://www.w3.org/2000/svg">
<g clip-path="url(#clip0_2963_1010)">
<path d="M48.8204 21.8892C31.9927 33.0509 4.89077 28.8049 0.595077 51.6537C-3.74322 74.7297 16.5424 99.2897 32.1063 113.959C66.2667 150.795 109.162 133.341 129.998 122.707C143.158 115.99 140.351 94.2059 131.418 80.8147C121.478 65.904 115.471 64.6473 114.307 56.3186C112.191 41.202 123.864 35.0387 114.307 15.9318C101.508 -6.25571 62.8151 12.6091 48.8204 21.8892Z" fill="#FFECBD"/>
<path d="M97.9208 81.8656C92.5958 84.2322 89.0458 86.3031 82.2417 88.6697C75.4375 91.0364 70.9999 89.8531 63.3082 93.4031C55.6166 96.9531 58.575 103.166 66.5625 102.574C74.55 101.982 75.4375 98.7281 81.65 96.6572C87.8625 94.5864 105.908 92.8114 112.713 87.1906C119.517 81.5697 103.246 79.4989 97.9208 81.8656Z" fill="#FCF6EB"/>
<path d="M83.425 17.3745C79.5792 19.1495 32.8375 34.237 26.3292 36.3079C14.4958 39.5621 16.8625 50.212 29.2875 45.7745C41.7125 41.337 75.7333 31.5745 87.2708 26.2495C98.8083 20.9245 87.2708 15.5995 83.425 17.3745Z" fill="#FFD76A"/>
<path d="M105.357 15.5353C104.604 16.6631 103.972 17.8694 103.068 18.8456C102.686 19.2707 101.575 19.4665 101.124 19.2263C100.673 18.9861 100.436 17.8286 100.66 17.3409C101.452 15.5515 102.399 13.835 103.491 12.2114C103.783 11.7812 104.789 11.8475 105.46 11.6892C105.576 12.3125 105.834 12.9617 105.799 13.5853C105.763 14.2089 105.424 14.833 105.21 15.4465L105.357 15.5353Z" fill="#FF8A46"/>
<path d="M130.831 44.1023C128.772 44.9091 126.787 45.8482 124.697 46.3773C123.485 46.6702 122.791 45.2808 123.454 44.1848C123.693 43.7975 124.02 43.3002 124.408 43.1775C126.06 42.5626 127.746 42.0436 129.457 41.6231C129.867 41.5181 130.558 41.9645 130.839 42.3352C131.121 42.7059 130.86 43.2562 130.831 44.1023Z" fill="#FF8A46"/>
<path d="M122.836 23.469C122.632 24.0795 122.564 24.8223 122.172 25.2357C120.347 27.1055 118.468 28.9105 116.508 30.6479C116.185 30.9479 115.264 31.0129 114.993 30.7483C114.722 30.4837 114.517 29.5059 114.752 29.1979C116.686 26.493 119.336 24.3987 122.392 23.1584L122.836 23.469Z" fill="#FFD76A"/>
<path d="M65.2615 128.067C64.8776 128.476 64.5594 128.865 64.1906 129.193C63.8875 129.466 63.554 129.724 63.1903 129.895C60.8867 130.991 58.482 131.693 55.9107 131.724C54.8649 131.739 53.8697 131.532 52.9301 131.072C52.6927 130.956 52.4704 130.825 52.2329 130.698C50.2829 132.108 48.1561 133.042 45.8121 133.461C45.61 133.496 45.4079 133.552 45.2008 133.552C43.1498 133.547 41.0988 133.628 39.0427 133.476C37.5726 133.365 36.249 132.835 34.8648 132.481C34.2081 132.315 33.7231 131.936 33.5513 131.209C33.3038 130.158 32.9805 129.128 32.7279 128.077C32.0813 125.4 31.3387 122.733 30.8537 120.026C30.0151 115.309 28.6208 110.733 27.6306 106.056C27.3023 104.506 26.9941 102.95 26.5647 101.43C26.0242 99.5104 25.2967 97.6416 24.7663 95.7224C23.8771 92.5 23.0789 89.2524 22.2505 86.0149C21.1845 81.8683 20.1388 77.7166 19.0527 73.5751C18.5172 71.5346 17.815 69.5345 17.3654 67.4739C16.5167 63.5798 15.8347 59.6453 15.0112 55.7461C14.2888 52.3319 13.4603 48.9378 12.6874 45.5387C12.1468 43.1649 11.7174 40.7759 11.6063 38.3314C11.576 37.7051 11.3537 37.0788 11.1668 36.4677C10.99 35.902 11.1314 35.503 11.6214 35.1898C13.8695 33.7403 15.6275 31.7503 17.4007 29.8058C17.9665 29.1846 18.5626 28.927 19.3052 28.7502C21.0734 28.3259 22.8163 27.7906 24.5995 27.432C28.6865 26.6087 32.7936 25.9117 36.8754 25.0632C40.4976 24.3106 44.0844 23.4167 47.6914 22.6086C52.1875 21.5984 56.7189 20.7297 61.1797 19.5882C65.6809 18.4417 70.2376 17.5983 74.7842 16.7043C77.689 16.1336 80.6443 15.8255 83.5693 15.376C84.2311 15.275 84.8828 15.0881 85.5345 14.9265C86.3326 14.7244 87.1157 14.482 87.9189 14.3103C88.606 14.1638 89.1667 14.3961 89.6012 14.977C91.0813 16.9619 92.3039 19.1034 93.385 21.3257C93.8497 22.2803 93.9154 23.2904 93.8295 24.2349C93.4304 24.5329 93.1021 24.7854 92.7131 25.0783C92.9202 25.6642 93.1071 26.2148 93.3041 26.7602C94.3297 29.6139 95.7442 32.2857 97.1334 34.9727C99.4421 39.4324 101.695 43.9225 103.923 48.4226C105.368 51.3419 106.691 54.3269 108.121 57.2512C110.106 61.3221 112.456 65.1808 114.951 68.9588C117.866 73.368 120.821 77.752 124.085 81.9138C125.54 83.7674 127.187 85.4392 128.854 87.1008C131.309 89.5454 133.709 92.0556 136.154 94.5051C137.316 95.6668 138.508 96.8032 139.74 97.8891C140.534 98.5912 141.281 99.3235 141.862 100.207C142.004 100.419 142.024 100.768 141.978 101.031C141.897 101.485 141.716 101.925 141.574 102.374C141.428 102.839 141.125 103.167 140.736 103.465C138.26 105.319 135.658 106.945 132.85 108.263C131.551 108.869 130.314 109.632 129.106 110.41C126.798 111.895 124.307 113.016 121.791 114.077C118.735 115.364 115.638 116.551 112.582 117.839C111.177 118.43 109.818 119.132 108.449 119.809C106.813 120.622 105.105 121.233 103.372 121.799C99.9321 122.915 96.406 123.683 92.9152 124.597C89.4446 125.506 85.9386 126.168 82.4124 126.794C79.7552 127.269 77.1333 127.915 74.4963 128.511C72.3088 129.006 70.0759 129.027 67.8632 129.254C66.7771 129.365 66.1709 128.926 65.5293 128.274C65.4687 128.198 65.3878 128.158 65.2615 128.067ZM140.362 100.339C140.008 100.036 139.781 99.8538 139.569 99.6569C138.24 98.4598 136.876 97.2881 135.593 96.0456C134.411 94.9041 133.34 93.6516 132.173 92.4899C130.652 90.9747 129.096 89.4999 127.55 88.01C125.727 86.2523 124.034 84.3886 122.463 82.3986C118.356 77.2015 114.865 71.5902 111.319 66.0142C108.874 62.1656 106.959 58.0291 105.024 53.9077C102.226 47.958 99.3815 42.0285 96.5525 36.0889C95.3299 33.5181 94.0063 30.9927 93.097 28.2805C92.7838 27.3411 92.4807 26.3966 92.1473 25.3814C90.854 25.7804 89.5506 26.0632 88.3483 26.5683C85.5597 27.7451 82.7257 28.7654 79.8663 29.7603C75.1833 31.3867 70.5508 33.1494 65.9031 34.8716C60.5331 36.8667 55.0013 38.3465 49.5151 39.9627C46.7012 40.791 43.8318 41.4476 41.0381 42.3315C38.5526 43.1194 36.1328 44.1245 33.6776 45.0185C31.2831 45.8922 28.8784 46.7509 26.4788 47.6145C25.9989 47.7863 25.524 47.9782 25.13 48.1297C25.8979 50.2965 26.6405 52.3369 27.3376 54.3875C28.742 58.4988 30.0403 62.6454 31.5306 66.7263C32.8997 70.474 34.491 74.1408 35.9206 77.8631C37.1533 81.0905 38.8305 84.0704 40.6542 86.9897C43.1599 91 45.6252 95.0304 48.1107 99.0558C49.995 102.101 51.8389 105.172 53.7687 108.193C56.3148 112.178 59.0882 116.011 61.9779 119.754C63.3065 121.471 64.6452 123.183 65.9688 124.905C66.1709 125.168 66.3477 125.415 66.7468 125.365C67.3277 125.294 67.9188 125.284 68.4947 125.208C72.4806 124.698 76.4715 124.223 80.4523 123.658C85.5749 122.93 90.6115 121.784 95.5219 120.132C98.553 119.112 101.544 117.966 104.58 116.961C108.838 115.551 113.122 114.223 117.245 112.41C120.579 110.94 123.863 109.39 127.035 107.591C129 106.475 130.996 105.415 132.981 104.334C135.401 103.026 137.831 101.712 140.362 100.339ZM38.5728 121.789C39.0528 121.632 39.2296 121.769 39.3458 122.062C39.5832 122.663 39.856 123.249 40.0732 123.86C40.9977 126.426 41.902 128.991 42.8618 131.678C45.7515 131.304 48.4946 130.562 50.7528 128.668C50.48 127.9 50.2476 127.269 50.0303 126.633C49.5504 125.218 49.0907 123.794 48.6007 122.38C47.6661 119.693 46.681 117.021 45.7868 114.319C45.0493 112.092 44.4936 109.804 43.7206 107.591C42.3971 103.793 41.2554 99.9397 40.3309 96.0254C39.6438 93.1162 39.0073 90.1919 38.3253 87.2776C38.2243 86.8533 38.0525 86.4442 37.8656 86.0503C35.3498 80.742 32.8239 75.4388 30.298 70.1356C30.202 69.9335 30.0757 69.7467 29.9595 69.5547C30.0504 70.1911 30.2222 70.777 30.4293 71.3528C31.6822 74.8024 32.9047 78.2571 33.8747 81.8027C35.2083 86.6665 36.6784 91.4949 38.0323 96.3587C39.1639 100.425 40.1995 104.521 41.3109 108.592C41.9424 110.91 42.5991 113.223 43.3114 115.516C43.948 117.562 44.6855 119.572 45.3625 121.602C45.6252 122.395 45.8121 123.213 45.6555 124.208C45.4433 123.971 45.2766 123.85 45.1958 123.688C44.8775 123.062 44.5441 122.435 44.2864 121.784C42.2859 116.728 40.9219 111.465 39.366 106.263C38.583 103.652 38.0475 100.97 37.3301 98.3386C35.951 93.3031 34.5213 88.2776 33.1068 83.2522C32.1773 79.9491 31.2578 76.6459 30.2727 73.3579C29.6817 71.3881 29.1159 69.4234 28.833 67.3779C28.742 66.7213 28.5349 66.0748 28.3227 65.4384C27.5397 63.0696 26.691 60.716 25.9534 58.3372C25.0138 55.3118 24.16 52.2561 23.2709 49.2156C22.6041 46.9327 21.9271 44.6599 21.2856 42.3719C21.0582 41.5537 20.942 40.7052 20.74 39.8819C20.5834 39.2455 19.7801 38.493 19.2547 38.4677C17.2087 38.3667 15.1628 38.2758 13.0966 38.1798C13.0814 38.2859 13.0511 38.3718 13.0663 38.4475C13.329 39.8011 13.5664 41.1547 13.8645 42.4982C14.9657 47.4479 16.1075 52.3925 17.1986 57.3472C17.7594 59.8928 18.2494 62.4585 18.7394 65.0192C19.2093 67.4991 19.6993 69.9739 20.6339 72.3326C21.8463 75.3883 22.9072 78.4945 23.8317 81.6562C25.3725 86.9241 26.7011 92.2374 27.767 97.6214C28.252 100.066 28.7521 102.516 29.4341 104.905C30.7526 109.531 32.1975 114.122 33.324 118.799C34.2788 122.759 35.5418 126.638 36.0975 130.739C36.8603 130.981 37.6231 131.224 38.5173 131.512C38.4516 130.976 38.4364 130.597 38.3556 130.234C38.0121 128.688 37.6888 127.138 37.2897 125.602C36.3703 122.082 35.4054 118.577 34.4708 115.061C33.4655 111.294 32.4652 107.521 31.4751 103.748C31.0709 102.218 30.6365 100.692 30.3232 99.1417C29.5453 95.2324 28.8229 91.3131 28.0903 87.3988C28.06 87.2271 28.0853 87.0453 28.0853 86.8634C28.3429 87.1665 28.4894 87.4847 28.5753 87.818C28.838 88.813 29.0805 89.808 29.3179 90.808C30.0757 93.9748 30.7779 97.1517 31.6064 100.298C32.349 103.132 33.2735 105.92 34.0464 108.748C35.4407 113.869 36.7946 119.001 38.1333 124.138C38.7648 126.572 39.3256 129.032 39.9217 131.512C40.437 131.537 40.9169 131.562 41.4776 131.592C40.5228 128.269 39.4317 125.087 38.5728 121.789ZM88.3736 15.4517C87.929 15.7043 87.6562 15.8659 87.3733 16.0174C85.8931 16.8003 84.4534 17.6639 82.9277 18.3407C79.7047 19.765 76.4311 21.0479 73.0716 22.1338C70.3689 23.0126 67.7268 24.0935 65.0241 24.9723C62.766 25.7046 60.4421 26.2299 58.1688 26.932C54.4406 28.0785 50.7224 29.2805 47.0094 30.4725C40.2804 32.6392 33.5513 34.811 26.8223 36.9929C25.7362 37.3465 24.6602 37.7404 23.5892 38.1495C23.0789 38.3465 22.594 38.6142 22.1292 38.8314C23.0789 41.2355 23.9883 43.5487 24.9279 45.9225C26.3222 45.4882 27.767 45.1144 29.1613 44.5892C31.7175 43.6346 34.2333 42.5689 36.7845 41.5992C38.8406 40.8163 40.8916 40.0031 42.9932 39.3769C46.2516 38.4021 49.5605 37.599 52.8139 36.5889C55.9763 35.609 59.1943 34.7959 62.3265 33.6999C64.7917 32.8362 67.2671 32.0079 69.7274 31.1442C73.9052 29.6745 78.0275 28.0381 82.3013 26.841C85.0091 26.0784 87.636 25.0329 90.3943 24.4369C90.753 24.3612 91.0965 24.1894 91.4501 24.0581C90.4145 21.154 89.4092 18.3508 88.3736 15.4517ZM40.4622 91.106C40.442 91.2929 40.4168 91.3535 40.4319 91.404C41.3665 94.9749 42.2405 98.5659 43.266 102.111C44.0945 104.98 45.1099 107.794 46.0445 110.632C46.9588 113.415 47.8581 116.203 48.8028 118.976C49.8081 121.935 51.0407 124.814 51.7076 127.921C52.3239 127.774 52.8189 127.84 53.213 128.38C53.3696 128.592 53.703 128.693 53.9758 128.789C55.264 129.239 56.5775 129.501 57.9516 129.203C58.5831 129.067 59.2095 128.9 59.8511 128.835C61.3666 128.683 62.6346 127.956 63.8723 127.153C64.0289 127.052 64.1552 126.895 64.3977 126.663C55.5318 115.42 47.6105 103.586 40.4622 91.106ZM21.4371 37.0485C22.3565 36.6949 23.1699 36.3414 24.0034 36.0737C31.8539 33.5635 39.7095 31.0685 47.5651 28.5684C51.1468 27.4269 54.7184 26.2602 58.3052 25.1541C60.8564 24.3662 63.4429 23.7046 65.989 22.8965C68.0552 22.2399 70.0759 21.4318 72.127 20.7196C75.1732 19.664 78.2346 18.6337 81.2859 17.5882C81.4223 17.5427 81.5385 17.4569 81.6648 17.3861C81.5082 17.3104 81.392 17.3053 81.2859 17.3306C76.0067 18.5933 70.7276 19.8559 65.4485 21.1237C59.6591 22.5176 53.8849 23.9975 48.0702 25.2905C44.0086 26.1946 39.8863 26.836 35.7944 27.6188C30.4091 28.6441 25.0289 29.6997 19.6387 30.7149C19.088 30.821 18.6233 31.018 18.2696 31.4271C17.4058 32.4221 16.5621 33.4372 15.7235 34.4524C15.3244 34.9322 14.9455 35.4222 14.4757 36.0131C15.9458 36.1394 17.2593 36.2454 18.5727 36.3717C19.5629 36.4778 20.5581 36.5687 21.4371 37.0485Z" fill="#172F5B"/>
<path d="M71.5056 71.8832C72.8595 74.757 74.1831 77.5652 75.5521 80.4643C78.7247 79.3582 81.786 78.2925 84.7868 77.242C84.0038 74.8934 83.2309 72.5903 82.4731 70.2922C82.463 70.267 82.5489 70.2165 82.655 70.1104C83.6199 72.3832 84.5696 74.6308 85.5395 76.9187C88.1614 76.1308 90.7025 75.3682 93.3042 74.5853C91.9149 72.0499 90.6722 69.4589 89.7578 66.7214C91.1673 69.2972 92.3847 71.9741 94.0367 74.4792C96.2847 74.0752 98.356 73.2065 100.528 72.4085C100.124 71.5498 99.7099 70.7417 99.3613 69.9084C98.7854 68.5295 98.2448 67.1305 97.7144 65.7315C97.6083 65.4537 97.6083 65.1355 97.5325 64.6456C97.8407 64.8476 98.0478 64.9082 98.0933 65.0244C99.2198 68.1962 100.786 71.1357 102.594 73.9641C103.635 75.6005 104.635 77.2622 105.681 78.8936C105.868 79.1865 106.166 79.4087 106.459 79.7017C106.484 79.8481 106.459 80.1461 106.585 80.3431C108.359 83.0402 109.864 85.914 111.986 88.3787C112.617 89.1111 113.133 89.9344 113.719 90.7122C114.355 91.5556 115.002 92.389 115.648 93.2274C115.81 93.4345 116.012 93.6214 116.133 93.8537C116.33 94.2426 116.568 94.5456 117.068 94.4547C117.219 95.0911 116.846 95.3032 116.421 95.4598C114.305 96.2477 112.183 97.0255 110.061 97.8134C109.955 97.8538 109.854 97.9195 109.672 98.0155C110.879 99.8741 112.077 101.708 113.309 103.607C113.143 103.632 112.976 103.708 112.855 103.667C111.915 103.324 111.188 102.672 110.556 101.94C109.945 101.228 109.435 100.435 108.879 99.6771C108.586 99.2781 108.303 98.869 107.995 98.4296C105.54 99.0509 103.256 100.046 100.821 100.859C101.665 102.197 102.766 103.329 103.226 105.061C101.539 104.001 100.24 102.804 99.038 101.425C96.5676 102.202 94.1125 102.97 91.5714 103.768C92.9051 105.445 94.1579 107.016 95.4158 108.587C95.3704 108.632 95.3249 108.683 95.2794 108.728C93.2335 107.688 91.6219 106.092 89.9498 104.475C87.0147 105.288 84.1351 106.354 81.2304 107.556C82.948 109.991 85.0293 112.102 86.8379 114.531C86.5651 114.44 86.2721 114.39 86.0296 114.248C84.4029 113.329 82.9783 112.152 81.7709 110.733C81.0687 109.905 80.4271 109.031 79.7199 108.122C77.2546 109.031 74.6883 109.647 72.2432 110.829C73.7183 113.213 75.1732 115.562 76.6837 118.006C77.2091 117.915 77.8406 117.809 78.4721 117.703C80.4978 117.355 82.5337 117.077 84.5393 116.637C88.6363 115.738 92.7182 114.764 96.7091 113.435C101.17 111.955 105.525 110.198 109.899 108.491C113.168 107.218 116.3 105.698 119.265 103.834C121.862 102.202 124.656 100.965 127.485 99.8135C127.914 99.6367 128.379 99.5458 128.839 99.465C129.01 99.4347 129.207 99.5256 129.596 99.6064C129.268 99.9095 129.091 100.132 128.864 100.273C124.615 102.899 120.407 105.592 116.093 108.102C114.254 109.172 112.213 109.92 110.228 110.718C106.904 112.051 103.569 113.354 100.205 114.577C96.9213 115.769 93.582 116.794 90.1771 117.597C87.8078 118.153 85.4385 118.759 83.044 119.173C79.2905 119.824 75.5218 120.451 71.7127 120.698C71.2732 120.728 70.8287 120.718 70.3892 120.703C69.7627 120.683 69.0201 119.935 69.0656 119.314C69.0757 119.132 69.2828 118.885 69.4596 118.814C69.7779 118.683 70.1366 118.627 70.4852 118.602C72.0007 118.476 73.5213 118.365 75.2035 118.238C73.7739 115.839 72.2432 113.673 70.7024 111.41C70.4144 111.506 70.1265 111.622 69.8234 111.703C69.4293 111.809 69.0353 111.94 68.6311 111.971C68.4038 111.986 68.1007 111.89 67.9441 111.728C67.6966 111.481 67.8532 111.157 68.03 110.93C68.2422 110.662 68.5099 110.425 68.7827 110.218C69.01 110.046 69.2879 109.94 69.6162 109.773C68.3078 107.677 67.0247 105.622 65.7011 103.501C65.4182 103.591 65.1252 103.697 64.8221 103.778C64.0037 104.001 63.1853 104.243 62.3568 104.405C61.7455 104.526 61.5485 104.384 61.114 103.829C61.2454 103.283 61.695 103.147 62.1547 103.011C63.0792 102.733 63.9936 102.445 64.9736 102.142C63.9582 100.142 62.9933 98.2377 61.9779 96.2427C61.4828 96.4194 61.0383 96.6265 60.5684 96.7326C60.2148 96.8134 59.8107 96.8387 59.4773 96.7376C59.2499 96.672 59.0226 96.3689 58.9418 96.1265C58.8306 95.7881 59.0529 95.4952 59.3611 95.3386C59.7804 95.1265 60.2148 94.9497 60.6442 94.7527C60.7756 94.6921 60.8918 94.6113 61.0383 94.5254C59.9622 92.5052 58.9064 90.5152 57.8001 88.4394C56.8958 88.707 56.0067 88.9697 55.1125 89.2323C54.7185 89.3485 54.3244 89.4646 53.9253 89.5657C53.7283 89.6162 53.5161 89.6616 53.3191 89.6414C52.92 89.596 52.4047 89.6364 52.2633 89.1717C52.1117 88.6666 52.6017 88.4343 52.9503 88.2878C53.7839 87.9343 54.6528 87.6565 55.5166 87.3636C55.9561 87.212 56.4108 87.0908 56.9665 86.9241C55.0569 83.8382 53.7081 80.5603 52.2936 77.2016C49.5555 78.0097 46.8629 78.8026 44.0692 79.6259C44.7916 81.2775 45.5343 82.8078 46.1405 84.3887C48.1309 89.5556 51.2883 94.0759 54.0617 98.8084C55.9157 101.975 57.6889 105.203 59.8865 108.152C62.1143 111.142 64.423 114.072 66.7165 117.011C67.252 117.698 67.646 118.435 67.8229 119.279C67.8633 119.461 67.8279 119.658 67.8279 120.016C67.3833 119.814 66.9994 119.733 66.7418 119.506C66.0648 118.905 65.3929 118.289 64.8019 117.602C60.5988 112.678 56.8251 107.44 53.6525 101.783C51.7126 98.3236 49.7222 94.8992 47.7672 91.4496C46.9387 89.9899 46.2668 88.4646 45.7515 86.8585C44.9887 84.4847 44.1854 82.126 43.3872 79.7623C43.3317 79.6006 43.2205 79.4592 43.1347 79.3128C42.7457 78.641 42.8113 78.4339 43.5742 78.1511C44.2309 77.9036 44.9078 77.7016 45.5747 77.4794C51.4398 75.5702 57.4313 74.1105 63.3975 72.56C67.9188 71.3832 72.3392 69.8983 76.7039 68.2265C83.4531 65.6405 90.364 63.5445 97.2446 61.3677C97.8053 61.1909 98.3762 61.0545 98.947 60.9232C99.2097 60.8626 99.4926 60.8727 99.7705 60.8474C99.7806 61.3626 99.4522 61.4384 99.1895 61.5242C94.4156 63.0849 89.8841 65.2819 85.0849 66.7921C81.8719 67.8022 78.7651 69.1508 75.6077 70.3427C74.567 70.7367 73.5112 71.1054 72.4655 71.4943C72.1876 71.5953 71.8997 71.7216 71.5056 71.8832ZM74.5064 80.7371C73.2333 77.8531 71.9653 74.9944 70.7125 72.1559C67.4591 73.0903 64.2815 74.0045 61.0332 74.9389C62.6094 77.9693 64.2967 80.9037 66.2315 83.6311C69.0353 82.6563 71.7734 81.6967 74.5064 80.7371ZM65.4131 84.0907C63.741 81.03 62.1143 78.0551 60.4573 75.0298C57.9213 75.6763 55.3499 76.3935 52.7179 77.1208C54.4052 80.4189 55.8905 83.6715 57.9971 86.6161C60.523 85.914 63.0085 85.1514 65.4131 84.0907ZM85.5699 78.5653C82.5034 79.7017 79.4925 80.8179 76.4412 81.9442C77.6031 84.1766 78.8004 86.3231 80.1392 88.404C83.2006 87.4242 86.2013 86.4847 89.2173 85.3938C87.9745 83.0604 86.7873 80.8431 85.5699 78.5653ZM85.2162 96.0406C88.0503 95.3942 90.748 94.581 93.3597 93.4799C92.1574 91.1516 91.0006 88.9141 89.8235 86.6413C86.8833 87.6818 83.9937 88.7121 80.9727 89.7828C82.4226 91.9193 83.8118 93.9699 85.2162 96.0406ZM102.65 91.0304C101.205 88.4697 99.8109 85.9948 98.4065 83.5048C95.9008 84.4493 93.4456 85.3736 90.9197 86.3231C92.218 88.6262 93.4658 90.8435 94.7187 93.0708C97.4164 92.3789 99.9978 91.7122 102.65 91.0304ZM86.3377 78.2925C87.6714 80.5956 88.9546 82.8129 90.2984 85.1362C92.8293 84.2776 95.335 83.424 97.9215 82.5401C96.5777 80.2067 95.2895 77.9794 94.0064 75.752C91.3592 76.3985 88.894 77.3127 86.3377 78.2925ZM71.6976 92.7021C72.9454 94.9194 74.0871 96.9548 75.3955 98.8791C78.1841 98.0508 80.8919 97.2427 83.6451 96.4194C82.3064 94.3335 80.9879 92.2829 79.6087 90.1313C77.0272 90.9748 74.4407 91.8132 71.6976 92.7021ZM67.2469 85.1968C68.4846 87.2474 69.692 89.2475 70.8792 91.2122C73.5415 90.3788 76.1331 89.5707 78.76 88.7424C77.6133 86.5908 76.4918 84.4796 75.3349 82.3129C72.6069 83.1917 69.889 83.9897 67.2469 85.1968ZM110.187 88.899C108.49 86.0706 106.853 83.3382 105.191 80.5653C103.287 81.3835 101.412 82.1866 99.4674 83.02C101.069 85.6211 102.504 88.2272 104.297 90.7374C106.292 90.1162 108.242 89.505 110.187 88.899ZM80.028 105.95C82.9076 104.91 85.6759 103.91 88.4595 102.899C87.146 101.207 85.8578 99.5509 84.5393 97.8538C81.7406 98.47 79.0076 99.2933 76.2038 100.273C77.4971 102.197 78.7449 104.046 80.028 105.95ZM67.2318 103.036C68.5705 105.152 69.8537 107.177 71.1166 109.172C73.6425 108.278 76.0977 107.41 78.5832 106.526C77.3152 104.551 76.0826 102.637 74.8297 100.692C72.3291 101.465 69.8688 102.223 67.2318 103.036ZM66.4387 101.652C69.0555 100.955 71.5359 100.197 74.0214 99.3387C72.8544 97.2276 71.738 95.2073 70.6165 93.1769C68.1058 93.9497 65.6809 94.778 63.2257 95.682C64.3169 97.7175 65.3576 99.6519 66.4387 101.652ZM69.8284 91.591C68.6716 89.5303 67.5602 87.5504 66.469 85.6059C63.8976 86.4797 61.4273 87.3232 58.8912 88.1868C60.0431 90.1768 61.1646 92.1213 62.2507 93.9951C64.7968 93.187 67.2267 92.4143 69.8284 91.591ZM104.918 79.9896C103.549 77.6056 102.251 75.3581 100.963 73.1156C98.846 73.9742 96.8253 74.7924 94.7743 75.6258C96.1686 77.7976 97.5527 79.9542 98.947 82.1361C100.943 81.4138 102.867 80.727 104.918 79.9896ZM86.262 97.4902C87.5148 99.2276 88.8384 100.814 90.2125 102.278C92.7535 101.48 95.1986 100.707 97.6993 99.9246C96.4969 98.2175 95.3401 96.576 94.2287 94.9952C91.5562 95.8336 88.9596 96.6467 86.262 97.4902ZM95.6533 94.4497C96.891 96.2225 98.0832 97.8741 99.4522 99.4095C101.963 98.5811 104.413 97.773 106.899 96.9548C105.716 95.3487 104.575 93.7981 103.408 92.2122C100.847 92.9496 98.3206 93.682 95.6533 94.4497ZM108.657 96.5609C110.814 96.2225 112.774 95.3234 114.8 94.778C113.451 92.9749 112.158 91.2475 110.859 89.5051C108.889 90.298 106.995 91.0607 105.034 91.8536C106.232 93.4092 107.409 94.9396 108.657 96.5609Z" fill="#172F5B"/>
<path d="M101.898 60.8272C102.362 61.1808 102.59 61.7313 102.868 62.2263C104.181 64.5193 105.505 66.8072 106.762 69.1306C109.334 73.8934 112.264 78.4289 115.386 82.8432C117.255 85.4847 119.397 87.8989 121.63 90.2374C123.07 91.7476 124.444 93.3183 125.863 94.8386C126.667 95.6972 127.51 96.5154 128.334 97.3538C128.622 97.6468 128.91 97.9347 129.172 98.2528C129.617 98.7882 129.607 98.7983 129.021 99.4095C128.152 99.1721 127.5 98.571 126.899 97.9448C125.06 96.0457 123.236 94.1365 121.438 92.1971C119.922 90.5606 118.427 88.904 116.982 87.2019C114.729 84.5554 112.981 81.5502 111.087 78.6511C109.268 75.8631 107.748 72.9186 106.232 69.9639C104.797 67.1709 103.393 64.3577 101.978 61.5545C101.877 61.3576 101.797 61.1505 101.706 60.9484C101.766 60.908 101.832 60.8676 101.898 60.8272Z" fill="#172F5B"/>
<path d="M18.7348 47.6954C19.0177 48.3924 19.3511 49.0743 19.5684 49.7915C20.3059 52.231 20.9626 54.6957 21.7204 57.1301C22.2408 58.807 22.9076 60.4434 23.4431 62.1202C24.994 66.984 26.5045 71.8529 28.0402 76.7218C28.9395 79.5754 29.9044 82.4038 30.7682 85.2675C32.6121 91.389 34.552 97.4801 36.1939 103.662C37.088 107.031 38.2095 110.349 39.3108 113.657C40.0888 115.991 41.0032 118.284 41.862 120.592C42.0944 121.213 42.0843 121.84 41.8923 122.592C41.6902 122.41 41.5185 122.309 41.4275 122.158C41.2507 121.855 41.0638 121.542 40.9678 121.208C40.2353 118.693 39.1694 116.309 38.1691 113.895C37.8104 113.031 37.4972 112.137 37.2295 111.238C35.4613 105.278 33.7387 99.3034 31.9503 93.3486C29.2931 84.4998 26.6106 75.6561 23.9079 66.8224C23.2208 64.5799 22.3772 62.3879 21.7103 60.1403C21.1092 58.1201 20.6545 56.0543 20.119 54.0138C19.6138 52.0845 19.0783 50.1652 18.563 48.2409C18.5176 48.0793 18.5327 47.9025 18.5176 47.7308C18.5934 47.7257 18.6641 47.7106 18.7348 47.6954Z" fill="#172F5B"/>
<path d="M1.51448 110.315C1.6796 109.623 1.66164 109.023 1.93764 108.574C2.20483 108.185 2.60589 107.909 3.0642 107.797C5.48605 107.087 7.92566 106.437 10.3653 105.788C10.9576 105.669 11.5657 105.651 12.1641 105.734C13.198 105.852 13.9559 106.419 14.0361 107.5C14.1163 108.581 13.4933 109.237 12.5482 109.422C9.61375 109.953 6.66013 110.464 3.71089 110.855C3.12902 110.934 2.48344 110.571 1.51448 110.315Z" fill="#FF8A46"/>
<path d="M25.9303 126.303C26.6318 126.228 27.3612 125.936 27.6922 126.167C28.0231 126.399 28.4829 127.474 28.291 127.807C27.2269 129.604 26.0269 131.297 24.787 132.989C24.5995 133.202 23.7961 133.332 23.7015 133.189C23.6069 133.046 23.1398 132.17 23.2918 131.836C24.0783 129.988 25.0021 128.205 25.9303 126.303Z" fill="#FF8A46"/>
<path d="M14.5362 119.185C15.5115 118.721 16.4686 118.165 17.5146 117.83C17.9212 117.709 18.4952 118.069 19.0047 118.194C18.8828 118.664 18.9265 119.38 18.6351 119.539C16.6823 120.637 14.673 121.632 12.6739 122.588C12.4843 122.609 12.29 122.579 12.1095 122.501C11.929 122.422 11.7684 122.299 11.6429 122.141C11.5017 121.882 11.7025 121.268 11.9657 121.058C12.7794 120.412 13.6739 119.857 14.5543 119.276L14.5362 119.185Z" fill="#FFD76A"/>
</g>
<defs>
<clipPath id="clip0_2963_1010">
<rect width="142" height="142" fill="white"/>
</clipPath>
</defs>
</svg>
