<svg width="142" height="142" viewBox="0 0 142 142" fill="none" xmlns="http://www.w3.org/2000/svg">
<g clip-path="url(#clip0_2963_1033)">
<path d="M68.9152 104.175C79.5391 107.18 94.1507 113.491 99.2802 113.041C104.41 112.591 124.398 103.567 124.398 103.567C124.398 103.567 132.088 96.9966 135.117 92.4262C138.498 87.326 131.906 79.4575 128.132 76.6143C123.601 73.2016 115.103 61.1141 110.367 58.0048C101.753 52.349 94.3934 39.5578 86.43 33.0672C72.3873 21.6215 41.5504 19.8921 26.54 29.2741C20.1152 33.2898 18.7622 39.2637 16.72 46.1047C14.0548 55.0328 12.3554 66.236 16.8154 74.97C18.9883 79.2252 23.6085 81.8119 27.3113 84.5782C30.5126 86.97 33.5797 89.4186 37.1767 91.2021C47.318 96.2306 58.0137 101.091 68.9152 104.175Z" fill="#FFD6E8"/>
<path d="M114.496 108.629C110.751 109.757 107.551 107.526 104.193 105.964C103.869 105.815 103.628 105.424 103.416 105.103C103.011 104.508 102.202 104.465 101.945 105.129C101.055 107.409 98.5629 108.408 95.8198 107.354C95.1286 107.087 94.4602 106.764 93.8211 106.389C91.2155 104.874 90.2486 102.072 92.5911 99.2825L85.9154 96.4383C85.5108 97.1099 85.086 97.9413 84.556 98.706C83.765 99.8489 82.707 100.286 81.3071 99.8328C80.0023 99.41 78.6651 99.0883 77.2794 98.7039C76.9497 99.6021 76.6725 100.498 76.2902 101.346C75.9977 101.986 75.6295 102.588 75.1937 103.14C74.5868 103.905 73.8121 104.018 72.837 103.782C70.8788 103.306 68.868 103.045 66.9077 102.568C65.0715 102.156 63.2667 101.615 61.5064 100.949C58.5064 99.7498 55.5792 98.3661 52.6176 97.0694C51.3674 96.5212 50.8374 95.5866 51.0457 94.2373C51.2318 93.0235 51.424 91.8097 51.6283 90.4908C51.5495 90.4442 51.3593 90.3148 51.153 90.2136C44.4266 86.9263 37.5992 83.9243 30.2882 82.1218C23.3798 80.4185 17.052 77.4023 11.2138 73.324C9.53474 72.1507 7.67766 71.2343 5.89747 70.2086C5.29058 69.8566 4.6574 69.5289 4.03838 69.1972C1.87179 68.0016 0.82795 66.2558 0.813789 63.6927C0.797606 60.7635 1.41056 57.994 2.40585 55.3076C3.54073 52.2468 4.7626 49.2063 6.1726 46.265C6.99999 44.5414 8.5273 43.2892 10.1942 42.3101C12.8876 40.7624 15.8252 39.6856 18.8808 39.126C19.5362 38.9985 19.7931 38.7902 19.8579 38.1347C20.2078 34.5581 20.4789 34.2082 24.0697 33.7571C25.2126 33.6134 25.7993 33.2028 26.1189 32.1387C26.3516 31.37 26.7602 30.6559 27.0373 29.8972C27.7798 27.8743 29.0926 27.2168 31.1095 28.022C33.7394 29.0699 36.349 30.1481 38.9384 31.283C42.5149 32.8528 46.0632 34.4894 49.6256 36.0956C49.8002 36.1962 49.9913 36.2647 50.19 36.2979C53.9487 36.486 57.7073 36.749 61.468 36.8198C66.05 36.9068 70.638 36.7348 75.2241 36.8441C83.9349 37.0464 92.4293 38.4928 100.596 41.6506C102.36 42.3177 104.156 42.8937 105.979 43.3762C110.235 44.554 114.335 46.2362 118.192 48.387C119.915 49.3358 121.586 50.3938 123.219 51.4943C124.311 52.2306 124.979 53.2057 124.503 54.6845C124.283 55.3683 124.443 56.1653 124.301 56.8895C123.656 60.4621 122.974 64.0305 122.294 67.597C121.966 69.3145 121.665 71.036 121.25 72.7373C121.048 73.5789 120.621 74.3557 120.273 75.1649C119.885 76.0691 119.211 76.5203 118.212 76.7185C110.12 78.3207 102.036 79.9525 93.9607 81.614C90.7927 82.2614 87.5924 82.1562 84.3921 82.0854C84.0649 82.0443 83.7433 81.9669 83.4332 81.8548C82.9052 82.7631 83.0974 83.1009 84.0947 83.1778C85.0663 83.235 86.0329 83.3587 86.9876 83.548C88.4319 83.8636 88.9296 84.5291 88.8386 85.9755C88.788 86.7605 88.8709 87.1893 89.7914 87.4907C90.9075 87.8727 91.9266 88.4941 92.7773 89.3114C95.2169 91.6884 97.9358 92.0302 100.948 90.7457C102.277 90.1792 103.539 89.4591 104.84 88.8259C111.067 85.7914 117.336 84.9094 123.654 88.5265C124.495 89.0079 125.387 89.5197 126.018 90.2298C128.551 93.0801 130.789 96.2218 131.321 100.053C131.927 104.504 131.228 108.718 127.222 111.608C126.571 112.08 125.721 112.488 124.938 112.537C121.86 112.754 118.786 112.06 116.1 110.542C115.495 110.19 115.119 109.387 114.496 108.629ZM107.365 59.0177C105.922 59.1006 104.62 59.22 103.319 59.2463C96.9493 59.3793 90.579 59.0209 84.2647 58.1741C75.5862 57.0473 66.932 55.7344 58.2899 54.3487C53.1921 53.5395 48.2176 52.1922 43.5992 49.7424C38.9303 47.2684 34.0711 45.1362 29.6793 42.1564C27.889 40.9426 25.8762 39.9635 24.7979 37.8899C24.3845 37.1609 23.8883 36.4821 23.3191 35.867C23.1168 35.6323 22.6293 35.3876 22.4189 35.4806C22.2528 35.5697 22.1088 35.695 21.9978 35.8474C21.8868 35.9997 21.8115 36.1752 21.7777 36.3606C21.5106 39.9149 21.2294 43.4733 21.1 47.0337C21.0393 48.7087 21.3407 50.3938 21.3933 52.0749C21.4257 53.1005 21.2962 54.1302 21.2315 55.3298C21.0898 55.2388 21.195 55.3298 21.3144 55.3824C24.2173 56.7297 27.098 58.1296 30.0333 59.402C32.8088 60.6158 35.5641 61.9712 38.469 62.746C44.8717 64.4554 51.3613 65.8451 57.8226 67.3259C58.1281 67.3967 58.6055 67.1884 58.8503 66.9517C59.6757 66.1587 60.6123 65.6712 61.7553 65.7905C63.1564 65.9112 64.5492 66.1138 65.9266 66.3974C71.9671 67.7588 77.5404 70.2531 82.8081 73.4777C83.3712 73.791 83.8349 74.2562 84.1465 74.8202C84.458 75.3843 84.6048 76.0245 84.5701 76.6679C84.5499 78.0092 84.4042 79.3483 84.3112 80.7037C87.6262 80.8705 90.949 80.6197 94.2014 79.9573C101.158 78.527 108.16 77.2647 115.105 75.8284C118.784 75.0678 119.021 74.7016 119.8 70.9733C119.814 70.9066 119.818 70.8398 119.832 70.771C120.56 66.9699 121.301 63.1708 122.011 59.3656C122.161 58.5564 122.195 57.7472 122.292 56.8389C121.584 57.0311 121.078 57.1869 120.554 57.3103C118.892 57.7149 119.001 57.7149 118.734 59.4546C118.048 63.8768 117.263 68.2848 116.494 72.6928C116.434 73.0327 116.189 73.3382 116.029 73.6598L115.728 73.5526C116.444 68.3576 117.162 63.1627 117.888 57.905C116.723 58.0446 115.79 58.1923 114.854 58.2591C114.14 58.3096 113.933 58.6131 113.867 59.3292C113.504 63.2517 113.08 67.1681 112.653 71.0826C112.594 71.6045 112.372 72.1062 112.226 72.616L111.916 72.5411C112.202 67.8721 112.489 63.2031 112.778 58.4694L109.185 58.8295C108.405 61.3623 108.538 64.1013 106.699 66.1122L106.238 65.9969L107.365 59.0177ZM15.1363 68.651C15.1363 70.2107 15.2941 71.6409 15.0756 73.0104C14.9482 73.8196 15.1424 74.123 15.7351 74.4022C18.5005 75.7111 21.1971 77.2344 24.0555 78.26C28.5869 79.8784 33.2802 81.0254 37.8379 82.5689C43.8481 84.606 49.4011 87.6627 54.95 90.691C56.6149 91.5993 57.1308 91.5933 58.1868 90.0578C60.9016 86.105 62.2064 81.5615 63.5658 77.0442C63.8713 76.0327 63.9036 74.9262 64.0412 73.8601C64.197 72.6342 63.6366 71.7198 62.5887 71.214C61.4194 70.6222 60.1942 70.1478 58.9312 69.798C55.1078 68.8512 51.2662 67.9773 47.4166 67.1479C34.7185 64.4048 22.9388 59.5982 12.5328 51.6986C11.5644 50.9192 10.6568 50.0671 9.81795 49.1497C8.94808 48.2495 8.15105 47.2744 7.1335 46.1153C5.64865 50.319 4.20628 54.2334 2.88529 58.1943C2.21974 60.2173 1.84954 62.2888 2.18333 64.4655C2.43417 66.0939 3.4234 67.3543 5.05592 67.7427C5.14493 66.3023 5.14897 64.8498 5.34115 63.4236C5.57754 61.6935 5.90777 59.9776 6.33038 58.2833C6.4639 57.7432 7.01414 57.3083 7.37221 56.8248L7.67362 57.0271C7.68117 57.2196 7.66691 57.4123 7.63114 57.6016C6.61966 60.9658 6.53874 64.4371 6.49019 67.9065C6.49019 68.2322 6.60753 68.7036 6.83814 68.8634C7.57652 69.3711 8.39177 69.7636 9.23736 70.2329C9.4255 68.6449 9.55699 67.1803 9.79165 65.7339C9.87459 65.2342 10.1821 64.7548 10.4592 64.3178C10.5381 64.1903 10.8942 64.162 11.0884 64.2166C11.1915 64.2429 11.2907 64.5504 11.2725 64.7183C11.0702 66.7838 10.8416 68.8452 10.6049 71.0684L14.0318 73.324C14.0318 72.3388 14.0095 71.5377 14.0318 70.7366C14.054 69.9355 14.1289 69.0535 15.1363 68.651V68.651ZM121.894 52.8497C119.996 54.8969 117.593 54.992 115.202 54.4923C111.945 53.8106 108.728 52.9306 105.52 52.0223C97.6162 49.7808 89.7873 47.2502 81.823 45.2656C75.6266 43.7241 69.2604 42.8826 62.9913 41.6243C58.6015 40.7423 54.2218 39.7814 50.1071 37.9122C44.374 35.3107 38.6302 32.7321 32.8756 30.1764C31.9329 29.7597 30.885 29.5695 29.8776 29.3045C29.1574 29.1022 28.6921 29.3389 28.3968 30.0935C27.6098 32.1003 26.7137 34.0625 25.951 36.0774C25.8088 36.5687 25.8579 37.0956 26.0886 37.5521C26.8391 38.9925 28.2167 39.7571 29.5802 40.5097C30.9437 41.2622 32.2687 42.0532 33.6504 42.747C38.4306 45.1503 43.2088 47.5617 48.0336 49.8739C49.3262 50.4929 50.7585 50.8672 52.1665 51.1828C55.4497 51.9171 58.737 52.6595 62.0567 53.2057C69.4283 54.4013 76.806 55.5928 84.2121 56.5537C88.8102 57.1606 93.4691 57.6623 98.0936 57.6016C104.276 57.5227 110.456 56.928 116.624 56.3878C118.362 56.2361 120.093 55.6211 121.746 55.0001C122.8 54.5955 122.79 53.7964 121.894 52.8497ZM86.2188 95.5623C87.1575 95.7646 88.0678 95.8192 88.8487 96.1692C91.7873 97.499 94.7004 98.8853 97.5878 100.328C99.2062 101.138 100.717 102.177 102.34 102.993C103.422 103.539 103.972 103.177 104.16 101.981C104.29 101.186 104.363 100.379 104.45 99.5759C104.622 97.8098 105.485 96.4989 107.126 95.8395C108.488 95.2912 109.898 94.6257 111.322 94.5286C113.599 94.3847 115.885 94.4865 118.141 94.832C120.945 95.2649 122.61 97.3142 123.49 99.8307C124.343 102.274 122.403 105.507 118.659 105.546C117.603 105.558 117.227 106.053 117.016 106.911C116.937 107.239 116.905 107.579 116.802 107.896C116.549 108.671 116.915 109.037 117.611 109.197C119.416 109.602 121.208 110.077 123.029 110.374C123.819 110.504 124.801 110.504 125.472 110.144C127.172 109.233 128.448 107.838 129.041 105.93C130.157 102.335 129.996 98.888 127.847 95.6695C127.602 95.3054 127.38 94.9291 127.155 94.5528C124.151 89.4955 119.45 87.693 113.885 88.045C110.705 88.2473 107.575 88.9978 104.852 90.9459C103.802 91.6964 102.538 92.2184 101.298 92.6128C98.7733 93.422 96.2021 93.7356 93.7827 92.2264C92.0004 91.1158 90.2546 89.9425 88.4562 88.7733C87.7185 91.0215 86.9727 93.2845 86.2188 95.5623ZM60.1066 67.8479C60.2846 67.9348 60.3716 67.9874 60.4646 68.0198C62.3075 68.6813 64.1808 69.2801 65.3844 71.0097C65.4876 71.1594 65.789 71.212 66.0116 71.2343C70.1546 71.8614 73.6988 73.8499 77.0933 76.15C78.0643 76.8055 78.5094 77.7907 78.1857 78.9822C77.8033 80.3578 77.4433 81.7536 76.9031 83.0706C75.7521 85.8724 74.3825 88.5872 73.3124 91.4173C72.531 93.585 71.1227 95.4715 69.2665 96.8368C68.7709 97.2009 67.9779 97.4902 67.4114 97.3749C65.0405 96.8853 62.6797 96.3068 60.3655 95.6007C59.1214 95.2225 57.9379 94.5893 56.8031 93.9379C55.4396 93.151 54.1591 92.2204 52.7208 91.2716C52.6398 92.3215 52.6115 93.2238 52.4901 94.1038C52.3829 94.9008 52.6702 95.3499 53.3964 95.6776C59.5968 98.4835 65.7364 101.449 72.6003 102.353C73.3306 102.448 73.8323 102.394 74.1458 101.649C75.2908 98.9305 76.5552 96.2562 77.597 93.4969C79.4359 88.6276 81.2383 83.7361 82.8567 78.7961C83.5445 76.7205 83.4514 75.0536 81.2545 73.941C75.3879 70.9895 69.2017 68.9038 62.9346 67.0407C61.9758 66.7514 60.8652 66.6503 60.1066 67.8458V67.8479ZM56.4369 38.515C56.7633 38.647 57.0962 38.7625 57.4342 38.861C59.8618 39.4051 62.2893 40.0161 64.7351 40.4591C70.0676 41.424 75.4729 42.0532 80.7407 43.2811C87.0968 44.7599 93.3356 46.7323 99.633 48.4639C105.095 49.9649 110.537 51.466 116.019 52.876C117.542 53.2684 119.134 53.2603 120.469 52.0122C119.565 51.3203 118.778 50.5617 117.858 50.0418C114.477 48.1322 110.96 46.5462 107.179 45.5549C104.9 44.9547 102.653 44.2377 100.448 43.4065C93.7208 40.876 86.6526 39.3664 79.4784 38.9277C71.8761 38.4483 64.2455 38.6243 56.4369 38.511V38.515ZM64.6764 79.7246C63.0156 84.2297 61.7168 88.9473 58.4599 92.7484C58.6116 92.8698 58.7006 92.9871 58.8179 93.0255C61.5914 93.946 64.3689 94.8644 67.1525 95.7565C67.2758 95.793 67.4057 95.8016 67.5327 95.7817C67.6597 95.7617 67.7807 95.7137 67.8868 95.6412C68.6738 94.832 69.4121 93.9905 70.2415 93.0761C68.6778 92.3984 68.0932 91.3202 68.2732 89.8394C68.5281 87.7213 69.3858 85.8319 70.5268 84.0558C71.4027 82.6923 72.6671 82.2978 74.2025 82.5891C75.5397 82.844 75.6752 82.7489 75.8633 81.5372L64.6764 79.7246ZM115.772 104.625C116.64 104.399 117.435 104.172 118.24 103.984C118.732 103.871 119.252 103.858 119.731 103.731C121.299 103.326 122.428 101.445 121.867 100.059C121.036 98.002 119.642 96.5394 117.302 96.2865C116.266 96.1732 115.232 96.0114 114.192 95.9669C111.672 95.8597 109.297 96.3877 107.233 97.8948C106.849 98.1739 106.689 98.7646 106.424 99.2117C106.748 99.4196 107.082 99.6107 107.425 99.7842C110.45 101.134 113.387 102.651 115.772 104.621V104.625ZM78.388 97.2474C79.3226 97.5367 80.2997 97.7835 81.2323 98.1476C82.1648 98.5118 82.8243 98.2104 83.2228 97.3708C83.804 96.1965 84.32 94.991 84.7684 93.7599C85.5614 91.4375 86.3018 89.0949 86.9693 86.7321C87.293 85.5932 87.0786 85.3949 85.9356 85.1542C85.1527 84.9883 84.3739 84.8022 83.5485 84.6161L78.388 97.2474ZM65.2185 78.351C66.2058 78.4522 67.2051 78.5189 68.1923 78.6585C70.7169 79.0186 73.2355 79.4232 75.7622 79.7732C76.0333 79.8116 76.4682 79.7003 76.5997 79.5041C76.8001 79.1748 76.8628 78.7798 76.7742 78.4047C76.6856 78.0295 76.4529 77.7043 76.1263 77.4994C74.1964 76.409 72.2827 75.2741 70.2861 74.3274C68.9752 73.7043 67.5267 73.3665 66.1613 72.9113C65.8234 74.8574 65.5159 76.6356 65.2185 78.347V78.351ZM19.2146 43.623C19.3218 42.5164 19.4169 41.4665 19.5443 40.2325C15.6441 41.5191 11.9724 42.7996 8.72151 45.0431C8.66689 45.0815 8.59002 45.1159 8.56777 45.1705C8.48887 45.3728 8.34929 45.5974 8.39177 45.7774C8.41605 45.8846 8.73972 45.915 8.92381 45.9919C9.42752 46.1942 10.0122 46.3236 10.4066 46.6635C11.0135 47.1874 11.4363 47.9096 12.025 48.4659C12.8483 49.2589 13.7425 49.9771 14.6063 50.7276C13.4208 45.4598 14.1572 44.3027 19.2146 43.623ZM19.1741 45.1705C16.9347 44.9298 15.8828 45.6277 15.6744 47.4282C15.3851 49.9184 17.3899 53.2947 19.8801 54.3649C19.6515 51.2859 19.4169 48.2636 19.1822 45.1705H19.1741ZM106.618 105.196C107.988 105.867 109.094 106.537 110.288 106.956C111.243 107.262 112.241 107.411 113.243 107.397C113.723 107.397 114.512 107.016 114.609 106.66C114.732 106.207 114.362 105.56 114.071 105.078C113.869 104.757 113.464 104.542 113.128 104.338C111.971 103.651 110.805 102.981 109.63 102.327C109.086 102.024 108.512 101.779 107.757 101.413C107.866 102.883 107.881 104.174 106.626 105.196H106.618ZM100.549 104C98.7288 102.869 96.9688 101.763 95.1927 100.682C93.9081 99.9015 93.2223 100.294 93.0706 101.831C92.9795 102.746 93.2243 103.565 93.987 104.038C94.9649 104.676 96.0121 105.201 97.1084 105.602C98.6721 106.134 99.6937 105.6 100.549 104Z" fill="black"/>
<path d="M111.432 120.993C111.659 120.317 111.697 119.436 112.142 119.103C112.442 118.944 112.774 118.851 113.113 118.832C113.452 118.812 113.792 118.865 114.109 118.988C115.765 119.669 117.958 123.651 117.791 125.378C117.658 126.675 116.542 127.357 115.779 126.507C114.27 124.818 112.965 122.953 111.432 120.993Z" fill="#FF7DB1"/>
<path d="M134.516 83.5517C133.985 83.6487 133.325 83.9101 132.746 83.8168C132.168 83.7236 131.242 83.3105 131.11 82.8527C131.066 82.5192 131.108 82.18 131.232 81.8674C131.356 81.5549 131.559 81.2794 131.82 81.0674C133.128 80.4547 134.511 80.0159 135.933 79.762C136.872 79.5946 137.854 80.1219 137.834 81.207C137.83 81.7323 137.128 82.3416 136.616 82.6947C135.95 83.0579 135.246 83.3453 134.516 83.5517V83.5517Z" fill="#FF7DB1"/>
<path d="M134.003 107.728C134.374 107.362 134.771 107.024 135.191 106.716C136.46 105.899 140.311 106.805 141.161 108.064C141.617 108.744 141.321 109.849 140.625 109.765C138.775 109.536 136.948 109.09 135.124 108.685C134.922 108.641 134.79 108.288 134.627 108.08L134.003 107.728Z" fill="#FF7DB1"/>
</g>
<defs>
<clipPath id="clip0_2963_1033">
<rect width="142" height="142" fill="white"/>
</clipPath>
</defs>
</svg>
