<svg width="319" height="319" viewBox="0 0 319 319" fill="none" xmlns="http://www.w3.org/2000/svg"><path d="M52.79 64.563c-3.688-21.921 16.487-32.996 26.8-34.653 26.95-4.445 47.803 28.476 51.868 42.714 3.086 10.697.677 21.395-6.7 29.455-5.27 5.801-12.722 9.643-20.853 10.924-8.356 1.28-19.949-2.938-29.585-10.698-11.367-9.341-19.045-22.6-21.53-37.742M5.967 164.681c-13.475-17.628-1.053-35.708 7.152-41.433 21.455-15.142 55.03 4.972 65.268 15.594 7.754 8.06 10.614 18.456 7.98 28.551-1.883 7.232-6.55 13.711-13.1 18.231-6.7 4.595-18.82 5.8-30.864 2.938-14.153-3.315-27.1-11.752-36.436-23.881M225.862 24.11C220.442 1.886 197.557-1.58 187.394.53c-26.423 5.274-32.295 43.92-30.338 58.91 1.431 11.3 7.98 20.642 17.917 25.765 7.151 3.616 15.508 4.746 23.487 3.013 8.13-1.733 17.089-9.793 22.735-20.641 6.775-12.807 8.431-28.175 4.667-43.467m92.82 46.48c.225-22.675-21.756-30.887-32.446-31.037-27.778-.527-43.512 35.557-45.394 50.473-1.43 11.225 2.71 21.696 11.367 28.702 6.249 5.047 14.304 7.835 22.735 7.985 8.582.076 19.648-5.8 28.004-15.066 9.937-10.924 15.583-25.463 15.734-41.057m-17.541 153.152c1.28 17.402-2.409 35.783-16.11 47.535-16.035 13.636-35.683 11.376-55.255 7.835-6.55-1.205-12.572-.527-18.218 1.13-5.646 1.733-10.916 4.52-15.583 9.04-13.776 13.711-27.327 27.798-48.706 25.463-18.368-2.034-38.468-15.971-44.792-32.469-24.842-64.937 26.875-152.173 52.47-171.609 26.273.603 140.774 38.571 146.194 113.075" fill="#00BD70"/></svg>