<svg width="600" height="134" viewBox="0 0 600 134" fill="none" xmlns="http://www.w3.org/2000/svg">
<path d="M120.599 99.1974C119.298 96.3181 115.807 91.5263 114.149 89.578C112.49 87.6296 112.075 86.1101 112.092 84.9441C112.109 83.7781 112.443 83.4264 112.922 82.819C113.401 82.2116 113.456 81.4894 113.059 80.9515C112.663 80.4137 111.474 80.3291 111.474 80.3291C111.474 80.3291 111.484 76.643 111.754 71.9716C112.025 67.3001 112.235 64.4791 113.056 58.9351C113.871 53.4229 115.339 44.3564 115.698 41.0653C116.057 37.7743 116.475 32.9843 115.906 28.9447C115.339 24.9051 113.666 22.3005 113.666 22.3005C113.666 22.3005 114.596 21.6799 115.843 20.1622C117.09 18.6445 117.358 17.8114 117.384 14.0633C117.409 10.3152 115.824 7.62782 115.375 7.01662C114.926 6.40541 114.962 6.24368 114.981 5.47074C114.999 4.6978 114.939 3.56567 112.718 3.13312C110.537 2.70998 109.557 4.13926 109.486 4.53607C109.414 4.931 109.161 5.00059 108.943 5.15668C108.725 5.31277 105.897 6.7759 102.881 6.7759C99.8648 6.7759 98.6535 5.77916 97.0366 4.06779C95.4196 2.35642 94.5107 2.03296 93.998 2.048C93.4853 2.06305 93.4872 1.8054 93.5792 1.75086C93.6694 1.69633 93.8703 1.07572 93.8703 0.767296C93.8703 0.456993 93.8515 -0.107195 93.2337 0.712758C92.614 1.53271 92.2872 1.27695 92.2872 1.27695C92.2872 1.27695 92.2872 0.729684 92.214 0.584876C92.1407 0.438187 91.8496 0.530338 91.7219 0.693952C91.5942 0.857566 90.9764 0.912105 90.6665 0.620608C90.3566 0.329111 90.1933 0.584876 90.1933 0.584876C90.1933 1.13214 89.9566 1.02306 89.9566 1.02306C87.427 0.913985 83.365 1.22805 79.5639 2.81718C75.7629 4.40631 72.4577 6.54082 69.2126 11.0336C66.6567 14.5749 66.1759 19.4062 65.9505 20.4838C65.7252 21.5595 63.6313 23.175 61.312 24.7321C58.9927 26.2893 58.1438 27.8483 57.8039 28.3862C57.464 28.924 58.2283 28.6984 57.8603 29.3208C57.4922 29.9433 56.3053 32.1813 56.0781 33.0595C55.8527 33.9378 56.1626 33.9096 55.8527 34.4474C54.9006 36.093 53.5428 41.0108 53.5653 41.7066C53.5879 42.4025 53.7738 42.5191 53.9353 42.9591C54.0968 43.3992 53.9578 45.1632 53.9353 46.16C53.9128 47.1567 54.2827 48.2023 54.4555 48.806C54.6283 49.4116 54.7485 51.0364 54.8536 51.296C54.9569 51.5555 55.4396 51.4614 55.725 51.563C56.0105 51.6646 56.5006 52.6049 56.7034 52.6857C56.9081 52.7666 57.295 52.8287 57.3757 53.0336C57.4565 53.2386 57.7626 53.7897 58.2527 53.7897C58.7429 53.7897 58.803 54.2598 59.4772 54.2805C60.1495 54.3012 60.7617 54.2598 61.1091 54.6077C61.4566 54.9556 61.8641 54.8127 62.2923 54.73C62.7204 54.6472 63.0472 55.281 63.0472 55.5838C63.0472 55.8866 60.7354 57.8161 59.3607 58.9727C57.9842 60.1292 57.1203 60.701 57.1203 61.0169C57.1203 61.3347 57.7551 61.0169 57.8114 61.3911C57.8678 61.7654 55.7588 63.3714 55.4414 63.5783C55.1241 63.7833 54.863 63.8397 54.863 64.419C54.863 64.9982 53.2761 65.9329 52.8855 66.1378C52.493 66.3428 52.1212 66.8675 52.2508 67.0349C52.3822 67.2023 52.6057 67.0537 52.6245 67.1835C52.6433 67.3151 52.1756 67.5859 48.4009 71.4186C44.6262 75.2532 36.3763 81.6775 32.0081 84.9178C27.64 88.1581 25.1423 90.1591 22.8718 93.012C20.6013 95.8649 20.6013 97.2904 20.6464 97.6026C20.6915 97.9148 19.3994 99.4306 18.3309 102.996C16.7214 108.371 17.7637 114.363 18.0285 115.527C18.2952 116.691 18.8924 118.19 18.8924 118.489C18.8924 118.788 17.7956 118.921 16.0998 118.688C14.404 118.455 12.3965 117.453 11.3805 115.527C10.449 113.763 9.7861 112.964 10.0509 109.435C10.2875 106.299 12.0453 104.644 13.8388 103.577C15.6341 102.513 16.2989 102.912 16.8304 102.513C17.3618 102.114 16.3327 100.583 15.867 100.382C15.4012 100.183 15.0688 99.5829 15.0688 99.5829C15.0688 99.5829 15.6679 99.6168 15.1026 99.0168C14.5374 98.4169 12.2782 98.1517 12.2782 98.1517L12.1129 97.753C12.1129 97.753 10.618 98.1517 9.91944 98.6858C9.22084 99.2199 8.09218 99.3516 8.09218 99.3516L8.1579 98.652C8.1579 98.652 7.66024 98.6181 6.4959 99.5509C5.33344 100.484 3.2057 102.547 2.60663 104.676C2.00755 106.806 2.04136 105.774 1.8761 106.141C1.71083 106.507 1.44416 107.506 1.60942 109.037C1.77469 110.568 1.99253 112.535 1.69018 112.578C1.38782 112.621 0.612223 111.391 0.482643 111.952C0.274188 112.854 0.957769 114.434 1.47421 115.514C1.99065 116.593 2.81133 118.536 2.81133 118.536C2.81133 118.536 2.07892 118.493 2.28174 118.891C2.77189 119.847 4.18975 120.324 5.09681 121.041C6.00387 121.757 8.34195 123.86 12.0153 124.721C15.6904 125.581 21.5591 123.717 21.5591 123.717C21.5591 123.717 23.0859 126.107 25.8071 127.922C28.5264 129.739 30.6259 131.029 39.12 131.984C47.614 132.94 55.4396 131.411 57.5147 131.112C59.588 130.813 63.2031 129.827 64.3993 129.848C65.5975 129.868 65.7684 129.077 66.1947 128.906C66.6229 128.734 67.1787 128.906 67.7985 128.906C68.4182 128.906 68.9102 128.392 68.3337 125.821C67.7572 123.252 65.8529 121.667 64.6979 120.983C63.543 120.298 59.096 120.426 57.834 119.805C56.572 119.185 56.4443 117.942 57.0847 116.208C57.7269 114.474 59.3307 112.952 60.8688 111.711C62.4087 110.47 62.5796 110.212 63.1787 110.062C63.7777 109.911 65.4886 108.006 65.4886 108.006C65.4886 108.006 65.4022 108.948 65.6595 108.992C65.9167 109.035 67.9468 106.915 67.9468 106.915C67.9468 106.915 68.0971 107.493 68.76 107.386C69.4229 107.278 70.792 106.443 71.2183 105.951C71.6464 105.458 71.9676 105.458 71.9676 105.458C71.9676 105.458 71.9676 106.722 71.669 107.192C71.3704 107.662 70.9422 109.441 70.9422 109.804C70.9422 110.169 71.391 110.381 71.391 110.381C71.391 110.381 71.3478 117.49 71.3272 118.496C71.3065 119.502 70.9422 119.459 70.9422 119.76C70.9422 120.059 71.2633 120.253 71.4117 120.574C71.5619 120.896 71.2201 121.838 71.1337 122.673C71.0474 123.508 71.2408 124.151 71.6032 123.85C71.9676 123.551 71.9882 123.807 72.0521 124.215C72.1159 124.622 72.4577 125.671 72.8652 125.65C73.2709 125.63 73.3141 125.158 73.5075 125.949C73.6991 126.741 75.6878 129.524 76.9498 130.168C78.2118 130.811 78.7714 130.88 81.7743 130.856C84.7772 130.831 86.2927 130.318 87.904 129.462C89.5153 128.607 90.3454 127.237 90.3942 126.455C90.443 125.673 90.443 124.695 90.8336 124.524C91.2243 124.353 92.0299 124.304 93.8121 124.157C95.5943 124.01 97.0347 122.69 97.0347 121.028C97.0347 119.365 95.1304 118.289 93.3971 117.507C91.6637 116.725 90.9069 116.285 89.6374 114.793C88.3679 113.302 88.4167 108.948 88.4167 108.948C88.4167 108.948 88.7585 108.948 88.8806 108.753C89.0026 108.557 88.3923 106.43 88.2946 106.112C88.197 105.795 88.1481 104.45 88.1481 104.45C88.1481 104.45 88.4167 104.45 88.5143 104.254C88.612 104.059 87.9284 100.832 87.9284 100.832C87.9284 100.832 88.3435 100.881 88.4655 100.538C88.5876 100.196 88.5144 97.1644 88.5876 96.8466C88.6608 96.5288 89.4421 94.9152 90.2721 94.035C91.1022 93.1549 91.2487 92.2259 91.2487 92.2259C91.2487 92.2259 91.6881 92.397 92.4449 91.5169C93.2018 90.6368 93.2262 88.9743 93.3727 87.3607C93.5191 85.7471 93.9342 86.0405 94.1051 86.3094C94.276 86.5784 94.7154 87.5563 94.7154 87.5563C94.7154 87.5563 95.6187 86.1139 96.7906 84.8426C97.9624 83.5713 97.8892 79.2176 97.8892 79.2176C97.8892 79.2176 98.4507 79.0954 99.0366 77.2617C99.6225 75.4281 99.1343 72.5658 99.1343 72.5658C99.1343 72.5658 99.4028 72.6147 99.6958 72.5414C99.9887 72.468 99.9399 71.9302 99.354 70.8789C98.7681 69.8276 98.2065 68.7275 98.353 68.5563C98.4995 68.3852 98.4751 67.9207 98.231 67.0161C97.9868 66.1115 97.2056 64.449 97.23 64.2535C97.2544 64.0579 97.5962 64.2779 98.0357 64.3268C98.4751 64.3757 98.2066 63.7889 97.8648 63.4711C97.523 63.1533 95.5211 61.8087 95.7652 61.393C96.0093 60.9774 96.2046 59.266 95.9849 58.3859C95.7652 57.5058 93.5924 55.5499 93.4703 55.1588C93.3482 54.7676 93.8966 52.665 93.6168 51.1004C93.1022 48.2362 92.3229 48.9 92.1032 48.5578C91.8834 48.2155 92.152 45.8196 92.4938 44.6705C92.8356 43.5214 93.6168 43.1058 94.3492 42.3235C95.0816 41.5411 94.8863 40.3432 95.3257 40.3432C95.7652 40.3432 95.7164 40.2943 96.2779 39.4875C96.8394 38.6807 98.5239 36.0892 98.7681 36.2115C99.0122 36.3337 98.9146 37.116 98.9146 37.116L102.479 33.4733C102.479 33.4733 101.718 56.022 101.718 59.5914C101.718 63.1589 101.675 82.5425 101.408 82.8077C101.142 83.0748 100.708 83.5336 100.732 84.6959C100.757 85.8581 101.869 86.5596 102.376 87.2366C102.883 87.9136 102.787 87.4792 102.883 88.4947C102.978 89.5103 102.616 89.1003 101.964 90.0199C101.313 90.9395 101.239 91.2292 101.239 92.1243C101.239 93.0195 101.313 93.4069 102.109 94.0125C102.907 94.618 103.801 93.988 104.163 93.4069C104.526 92.8258 104.163 90.8173 104.163 90.8173C104.163 90.8173 104.671 90.6725 104.962 90.0669C105.251 89.4614 104.624 88.9292 104.188 88.5417C103.752 88.1543 103.874 87.4773 103.874 87.4773C103.874 87.4773 104.672 85.687 104.841 84.6225C105.01 83.5581 104.624 82.9036 104.334 82.7118C104.045 82.5181 103.916 82.3112 103.916 82.3112C103.916 82.3112 104.533 60.6295 104.584 56.6651C104.635 52.7008 105.564 30.468 105.564 30.468C106.417 29.6593 111.392 24.2732 111.392 24.2732C111.392 24.2732 112.736 26.4736 113.23 29.8399C113.724 33.2062 112.962 40.9732 112.781 42.2746C112.603 43.576 110.438 58.0436 109.912 61.3441C109.386 64.6446 108.629 76.8292 108.684 79.3286C108.738 81.8279 108.466 90.0876 108.195 92.9669C107.925 95.8461 106.947 102.122 107.084 105.409C107.221 108.696 108.44 110.543 110.042 112.01C111.642 113.477 114.545 113.721 117.014 112.663C119.484 111.604 120.731 110.218 121.463 107.718C122.199 105.2 121.903 102.077 120.599 99.1974ZM102.898 93.0045C102.439 93.0308 102.248 92.5324 102.224 92.1939C102.173 91.5019 102.562 90.9264 102.796 90.8079C103.033 90.6894 103.386 90.9772 103.47 91.7031C103.555 92.4309 103.47 92.9706 102.898 93.0045ZM104.145 83.8797C104.235 84.2389 104.287 84.8143 103.964 84.8313C103.641 84.8501 103.559 84.6225 103.067 84.6507C102.133 84.7053 102.116 85.4049 101.972 85.4406C101.658 85.5196 101.345 84.9911 101.326 84.5417C101.307 84.0922 101.433 83.9135 101.775 83.985C102.116 84.0564 102.977 84.0753 103.335 83.8421C103.694 83.6089 104.055 83.5205 104.145 83.8797ZM118.71 107.322C117.625 109.404 115.67 110.396 114.089 110.366C112.507 110.334 110.862 109.714 110.366 107.57C109.871 105.426 109.777 101.232 110.46 96.8522C111.142 92.4723 111.187 90.6537 111.187 90.6537C111.642 90.5709 112.012 91.5094 112.725 92.4102C113.439 93.311 116.541 97.4728 117.441 99.1503C118.338 100.83 119.796 105.24 118.71 107.322Z" fill="#BE4353"/>
<path d="M217.324 86.8737C215.204 89.9128 211.724 92.666 206.881 95.1353C202.038 97.6064 195.816 98.8401 188.214 98.8401C178.602 98.8401 170.689 95.7935 164.476 89.7003C158.262 83.6071 155.156 75.7291 155.156 66.0665V49.3778C155.156 39.7151 158.089 31.8372 163.954 25.744C169.821 19.6507 177.395 16.6041 186.678 16.6041C196.071 16.6041 203.371 18.9192 208.579 23.5493C213.786 28.1794 216.445 34.2087 216.554 41.639L216.445 41.9681H203.837C203.544 37.5769 201.981 34.0356 199.149 31.3464C196.315 28.6571 192.214 27.3105 186.843 27.3105C181.324 27.3105 176.875 29.3773 173.494 33.5091C170.114 37.6408 168.424 42.8878 168.424 49.2499V66.0345C168.424 72.47 170.26 77.764 173.934 81.9126C177.607 86.0632 182.366 88.1375 188.214 88.1375C192.381 88.1375 195.76 87.6542 198.355 86.6875C200.95 85.719 202.832 84.5793 204.002 83.2648V67.0576H188.159V57.0658H217.324V86.8737Z" fill="#3A3A3A"/>
<path d="M229.495 67.4411C229.495 58.621 231.909 51.375 236.731 45.7011C241.629 40.0291 248.262 37.1913 256.632 37.1913C265.147 37.1913 271.817 40.0273 276.642 45.7011C281.502 51.3374 283.934 58.5834 283.934 67.4411V68.594C283.934 77.5251 281.504 84.8069 276.642 90.4431C271.817 96.0436 265.184 98.842 256.743 98.842C248.264 98.842 241.593 96.0248 236.733 90.3867C231.909 84.7504 229.497 77.4856 229.497 68.5921V67.4411H229.495ZM242.816 68.5658C242.816 74.3412 243.948 79.0559 246.215 82.7099C248.444 86.3283 251.952 88.1374 256.741 88.1374C261.381 88.1374 264.854 86.3283 267.156 82.7099C269.494 79.0559 270.664 74.3393 270.664 68.5658V67.4148C270.664 61.7504 269.494 57.0902 267.156 53.4343C264.854 49.7426 261.346 47.8977 256.63 47.8977C251.988 47.8977 248.517 49.7445 246.215 53.4343C243.948 57.1259 242.816 61.7861 242.816 67.4148V68.5658Z" fill="#3A3A3A"/>
<path d="M293.087 67.4411C293.087 58.621 295.5 51.375 300.323 45.7011C305.221 40.0291 311.854 37.1913 320.224 37.1913C328.739 37.1913 335.409 40.0273 340.234 45.7011C345.094 51.3374 347.526 58.5834 347.526 67.4411V68.594C347.526 77.5251 345.096 84.8069 340.234 90.4431C335.409 96.0436 328.776 98.842 320.335 98.842C311.856 98.842 305.185 96.0248 300.325 90.3867C295.5 84.7504 293.089 77.4856 293.089 68.5921V67.4411H293.087ZM306.41 68.5658C306.41 74.3412 307.542 79.0559 309.809 82.7099C312.038 86.3283 315.546 88.1374 320.335 88.1374C324.975 88.1374 328.447 86.3283 330.75 82.7099C333.088 79.0559 334.258 74.3393 334.258 68.5658V67.4148C334.258 61.7504 333.088 57.0902 330.75 53.4343C328.447 49.7426 324.939 47.8977 320.224 47.8977C315.582 47.8977 312.111 49.7445 309.809 53.4343C307.542 57.1259 306.41 61.7861 306.41 67.4148V68.5658Z" fill="#3A3A3A"/>
<path d="M356.679 68.814C356.679 59.3356 358.707 51.6947 362.764 45.8929C366.82 40.0931 372.522 37.1913 379.868 37.1913C383.083 37.1913 385.962 37.842 388.503 39.1396C391.042 40.4391 393.245 42.2953 395.11 44.7119V12.0492H408.432V97.691H395.921L395.932 90.334C394.032 93.1154 391.746 95.2293 389.08 96.6755C386.411 98.1217 383.305 98.8438 379.761 98.8438C372.488 98.8438 366.824 96.1903 362.765 90.8831C358.709 85.5779 356.681 78.6045 356.681 69.9668V68.814H356.679ZM370.001 69.9668C370.001 75.4564 371.051 79.8307 373.154 83.088C375.256 86.3452 378.589 87.9738 383.158 87.9738C385.972 87.9738 388.357 87.3701 390.313 86.1628C392.268 84.9554 393.867 83.2346 395.11 81.0023V55.0892C393.867 52.8926 392.259 51.1831 390.285 49.957C388.312 48.7308 385.973 48.1177 383.267 48.1177C378.736 48.1177 375.391 50.0303 373.235 53.8536C371.079 57.6788 370.001 62.6644 370.001 68.814V69.9668Z" fill="#3A3A3A"/>
<path d="M432.716 64.4753V97.6891H426.192V17.7568H453.657C462.026 17.7568 468.505 19.8895 473.091 24.1528C477.677 28.4162 479.971 34.0619 479.971 41.0898C479.971 48.191 477.678 53.863 473.091 58.1075C468.505 62.354 462.026 64.4753 453.657 64.4753H432.716ZM432.716 58.8767H453.657C460.236 58.8767 465.179 57.203 468.486 53.8536C471.793 50.5042 473.447 46.2878 473.447 41.1988C473.447 36.076 471.802 31.8202 468.514 28.435C465.224 25.0499 460.272 23.3573 453.657 23.3573H432.716V58.8767Z" fill="#3A3A3A"/>
<path d="M528.218 87.9719C526.318 91.4492 523.758 94.1291 520.543 96.0135C517.326 97.8979 513.527 98.8401 509.14 98.8401C502.89 98.8401 497.992 96.7187 494.447 92.4723C490.901 88.2277 489.13 81.6399 489.13 72.7088V38.2896H495.709V72.8893C495.709 80.1504 496.943 85.3579 499.41 88.5117C501.876 91.6655 505.377 93.2414 509.908 93.2414C514.877 93.2414 518.844 92.1225 521.805 89.8864C524.765 87.6485 526.831 84.5699 528.001 80.645V38.2896H534.579V97.6891H528.769L528.218 87.9719Z" fill="#3A3A3A"/>
<path d="M599.594 69.6358C599.594 78.5293 597.585 85.6212 593.564 90.9095C589.544 96.1978 584.007 98.842 576.954 98.842C572.788 98.842 569.141 98.054 566.018 96.4818C562.893 94.9096 560.345 92.6585 558.371 89.7284V120.526H551.793V38.2896H557.329L558.151 47.5122C560.125 44.2192 562.674 41.6747 565.799 39.8806C568.923 38.0883 572.604 37.1913 576.845 37.1913C583.972 37.1913 589.544 40.0367 593.564 45.7274C597.585 51.4182 599.594 59.0047 599.594 68.483V69.6358ZM593.016 68.4022C593.016 60.8552 591.517 54.6999 588.52 49.9363C585.523 45.1745 581.138 42.7918 575.363 42.7918C570.94 42.7918 567.35 43.8449 564.591 45.9512C561.83 48.0575 559.757 50.7976 558.369 54.1677V82.7476C559.868 86.0086 562.033 88.5737 564.865 90.4412C567.697 92.3087 571.233 93.2433 575.472 93.2433C581.209 93.2433 585.568 91.0825 588.546 86.7589C591.525 82.4354 593.014 76.7032 593.014 69.5569V68.4022H593.016Z" fill="#3A3A3A"/>
</svg>
